<?xml version="1.0" encoding="utf-8"?>
<!-- Generator: Adobe Illustrator 19.0.0, SVG Export Plug-In . SVG Version: 6.00 Build 0)  -->
<svg version="1.1" id="Capa_1" xmlns="http://www.w3.org/2000/svg" xmlns:xlink="http://www.w3.org/1999/xlink" x="0px" y="0px"
	 viewBox="0 0 120 12" style="enable-background:new 0 0 120 12;" xml:space="preserve">
<style type="text/css">
	.st0{fill:#FFFFFF;}
</style>
<polygon class="st0" points="28.7,6 33.5,2.2 31.6,2.2 27.6,5.3 27.6,2.2 26.4,2.2 26.4,9.9 27.6,9.9 27.6,6.8 31.4,9.8 31.6,9.9 
	33.5,9.9 28.7,6.1 "/>
<path class="st0" d="M37.4,2.1h-3.6v7.8H34h3.5c1.1,0,2-0.3,2.5-0.8c0.7-0.6,1-2,1-3C41,5,40.7,3.6,40,3C39.4,2.5,38.5,2.2,37.4,2.1
	z M35,3.3h2.4c0.8,0,1.4,0.2,1.8,0.5c0.4,0.3,0.6,1.3,0.6,2.2c0,0.9-0.2,1.8-0.6,2.1c-0.4,0.3-1,0.5-1.8,0.5H35V3.3z"/>
<path class="st0" d="M45.1,5.4L45,5.5l0,0h0l0,0L45.1,5.4c-0.8-0.3-2.1-0.7-2.1-1.1c0-0.4,0.1-0.6,0.3-0.7c0.4-0.2,1.1-0.4,1.7-0.4
	c0.7,0,1.3,0.3,1.5,0.5c0.2,0.2,0.3,0.4,0.4,0.9L46.9,5L48,4.9L48,4.4c-0.1-0.7-0.3-1.3-0.8-1.7C46.8,2.3,45.9,2,44.9,2
	c-0.9,0-1.8,0.2-2.3,0.6c-0.6,0.4-0.8,0.9-0.8,1.7c0,1.3,1.5,1.8,3.1,2.3c0.8,0.3,2.1,0.7,2.1,1.1c0,0.4-0.1,0.6-0.3,0.7
	c-0.4,0.2-1.1,0.4-1.7,0.4c-0.7,0-1.3-0.2-1.7-0.4c-0.3-0.2-0.4-0.5-0.6-1l-0.1-0.5l-1.1,0.3l0.1,0.5c0.1,0.5,0.4,1.2,1.1,1.7
	C43.1,9.7,44,10,44.9,10c0.9,0,1.8-0.2,2.3-0.6c0.6-0.4,0.8-0.9,0.8-1.7C48.1,6.4,46.6,5.9,45.1,5.4z"/>
<polygon class="st0" points="52,8.8 52,4.7 51,4.7 51,9.8 54.3,9.8 54.3,9.4 54.3,8.8 "/>
<path class="st0" d="M56.3,4.6c-0.7,0-1.2,0.2-1.6,0.6c-0.4,0.4-0.6,1.3-0.6,2c0,0.7,0.2,1.6,0.6,2c0.4,0.4,0.9,0.6,1.6,0.6
	c0.7,0,1.2-0.2,1.6-0.6c0.4-0.4,0.6-1.3,0.6-2c0-0.7-0.2-1.6-0.6-2C57.5,4.8,57,4.6,56.3,4.6z M56.3,5.6c0.4,0,0.7,0.1,0.9,0.3
	c0.2,0.2,0.3,0.7,0.3,1.3s-0.2,1.2-0.3,1.3c-0.2,0.2-0.5,0.3-0.9,0.3c-0.3,0-0.7,0-0.9-0.3c-0.2-0.2-0.3-0.7-0.3-1.3
	c0-0.6,0.2-1.2,0.3-1.3C55.7,5.7,55.9,5.6,56.3,5.6z"/>
<path class="st0" d="M61,5.6c0.2,0,0.7,0.1,0.8,0.2C61.9,5.9,62,6.1,62,6.2l0.1,0.4L63,6.4L63,6c0-0.2-0.3-0.8-0.6-1
	c-0.4-0.2-1-0.3-1.3-0.3c-0.7,0-1.2,0.2-1.5,0.6c-0.4,0.4-0.6,1.3-0.6,2c0,0.7,0.2,1.6,0.6,2c0.4,0.4,0.9,0.6,1.5,0.6
	c0.2,0,0.6,0,0.9-0.1c0.3-0.1,0.6-0.3,0.8-0.5L63,9.1V7.2l-0.1-0.4h-2.3v1H62v0.9c-0.1,0.1-0.2,0.1-0.4,0.2
	c-0.2,0.1-0.4,0.1-0.6,0.1c-0.4,0-0.7-0.1-0.9-0.3c-0.1-0.2-0.3-0.7-0.3-1.3c0-0.6,0.2-1.2,0.3-1.3C60.3,5.7,60.6,5.6,61,5.6z"/>
<path class="st0" d="M65.5,6.8c-0.4-0.1-1-0.4-1-0.6c0-0.3,0.1-0.3,0.1-0.4c0.1-0.1,0.4-0.2,0.8-0.2c0.3,0,0.6,0.1,0.7,0.2
	c0.1,0.1,0.1,0.2,0.2,0.5l0,0.4l1-0.1l0-0.4c0-0.5-0.2-0.8-0.4-1.1c-0.3-0.3-0.8-0.5-1.3-0.5c-0.5,0-1,0.2-1.4,0.4
	c-0.5,0.4-0.5,1-0.5,1.1c0,0.9,0.9,1.2,1.7,1.5c0.4,0.2,1,0.4,1,0.6c0,0.3,0,0.3-0.1,0.4c-0.1,0.1-0.4,0.2-0.8,0.2
	c-0.4,0-0.6-0.1-0.8-0.2c-0.1-0.1-0.2-0.2-0.2-0.5l-0.1-0.4l-0.9,0.2l0.1,0.4c0.1,0.5,0.3,0.9,0.6,1.1c0.3,0.2,0.8,0.4,1.4,0.4
	c0.5,0,1-0.2,1.4-0.4c0.3-0.3,0.5-0.6,0.5-1.1C67.2,7.4,66.3,7.1,65.5,6.8z"/>
<g>
	<polygon class="st0" points="8.8,3.6 9.9,0.4 9.1,0.5 8.2,1.5 	"/>
	<polygon class="st0" points="13,2.7 11.2,0.5 10.2,0.4 9,3.7 	"/>
	<polygon class="st0" points="13.2,1 11.6,0.6 13.1,2.4 	"/>
	<polygon class="st0" points="6.3,8.1 4.3,6.4 4.4,8.1 4.7,10 4.9,10 	"/>
	<polygon class="st0" points="8.7,0.6 7.9,0.8 6.9,1.4 8,1.4 	"/>
	<polygon class="st0" points="3.8,5.3 3.3,6.8 3.3,7.2 4,6.1 	"/>
	<polygon class="st0" points="14.8,1.4 13.4,1 13.3,2.6 16.1,3 	"/>
	<polygon class="st0" points="3.8,6.8 4.1,7.5 4.1,6.4 	"/>
	<polygon class="st0" points="4.4,3.8 3.9,5 4.1,5.7 4.8,3.4 	"/>
	<polygon class="st0" points="6.7,4.8 5.5,2.5 5.2,2.8 4.3,5.9 	"/>
	<polygon class="st0" points="7.9,1.6 6.5,1.6 6,2 8.6,3.6 	"/>
	<polygon class="st0" points="8.6,3.9 5.8,2.1 5.7,2.3 6.9,4.7 	"/>
	<polygon class="st0" points="16,3.2 13.3,2.9 11.6,6.2 	"/>
	<polygon class="st0" points="6.9,4.9 6.6,7.5 8.5,4.1 	"/>
	<polygon class="st0" points="6.4,7.9 6.7,5 4.4,6.1 	"/>
	<polygon class="st0" points="18.9,3.2 18.9,3 17.6,2.5 16.7,3 	"/>
	<polygon class="st0" points="8.8,4.1 6.7,7.9 11.1,6.5 	"/>
	<polygon class="st0" points="17.4,2.4 15.2,1.5 16.3,3 	"/>
	<polygon class="st0" points="10.8,6.8 6.9,8.1 8.8,8.4 	"/>
	<polygon class="st0" points="10.2,10.1 14.3,9.3 9.1,8.7 	"/>
	<polygon class="st0" points="16.2,3.4 11.5,6.5 15.1,9.1 	"/>
	<polygon class="st0" points="13,2.9 9,3.9 11.3,6.3 	"/>
	<polygon class="st0" points="16.3,3.7 15.3,9.1 17.1,8.6 	"/>
	<polygon class="st0" points="11.3,6.7 9.1,8.5 14.7,9.1 	"/>
	<path class="st0" d="M21.7,5.1L21.7,5.1l-0.2-0.4l-0.2,1.4l1.1,0.1L21.7,5.1z"/>
	<path class="st0" d="M20.3,3.3C20.3,3.3,20.3,3.2,20.3,3.3l-0.2-0.7l-0.6-0.2l-0.5,0.5v0.2L20.3,3.3z"/>
	<polygon class="st0" points="19.2,6.9 21,3.8 20.6,3.5 19.1,3.4 	"/>
	<path class="st0" d="M21,7.9l0.1-1.7l0,0l0,0l0.2-1.9L21.2,4l-2,3.1L21,7.9z M20.8,5C20.9,5,20.9,5.1,20.8,5l0.1,0.7
		c0,0.1-0.1,0.1-0.1,0.1l-0.1-0.1V5.2C20.7,5.1,20.8,5,20.8,5z"/>
	<polygon class="st0" points="16.5,3.2 19,6.8 18.9,3.4 	"/>
	<polygon class="st0" points="21.2,7.8 22.4,6.4 21.3,6.4 	"/>
	<polygon class="st0" points="22.6,9.3 23.2,8.7 23.3,7.9 23,7.1 	"/>
	<polygon class="st0" points="18.8,9.1 19,7.5 18,8.3 	"/>
	<polygon class="st0" points="22.7,6.5 21.2,8.1 21.7,9.9 22.3,9.6 22.8,6.8 	"/>
	<polygon class="st0" points="20,10.1 20.7,10.2 21.5,10 21,8.4 	"/>
	<polygon class="st0" points="19.2,7.4 19,9.3 19.9,10 20.9,8.2 	"/>
	<polygon class="st0" points="16.5,11.6 17.5,11.6 17.8,8.4 17.3,8.8 	"/>
	<polygon class="st0" points="8.8,8.7 7.6,10.2 8.8,10.8 9.9,10.2 	"/>
	<polygon class="st0" points="9.2,10.8 10.8,11 10.1,10.3 	"/>
	<polygon class="st0" points="16.5,3.6 17.3,8.5 18.9,7.2 	"/>
	<polygon class="st0" points="6.6,8.2 6.4,11.4 8.6,8.6 	"/>
	<polygon class="st0" points="6.1,11.4 6.3,8.5 5.1,10.2 	"/>
	<polygon class="st0" points="6.5,11.6 7.6,11.6 7.8,10.6 7.4,10.4 	"/>
	<polygon class="st0" points="10.4,10.3 11.1,11 14.5,10.4 14.9,9.4 	"/>
	<polygon class="st0" points="4.7,10.3 4.8,11.6 6,11.6 4.9,10.3 	"/>
	<polygon class="st0" points="15.3,9.3 15.5,11.6 15.8,11.6 16.2,11.6 17,8.9 	"/>
	<polygon class="st0" points="14.7,10.5 14.8,11.6 15.3,11.6 15.1,9.7 	"/>
</g>
</svg>
